<mxfile host="Electron" agent="Mozilla/5.0 (Macintosh; Intel Mac OS X 10_15_7) AppleWebKit/537.36 (KHTML, like Gecko) draw.io/26.2.15 Chrome/134.0.6998.205 Electron/35.2.1 Safari/537.36" version="26.2.15">
  <diagram name="Page-1" id="ZeP9OFAIea2QbIN0LHaS">
    <mxGraphModel dx="895" dy="563" grid="1" gridSize="10" guides="1" tooltips="1" connect="1" arrows="1" fold="1" page="1" pageScale="1" pageWidth="827" pageHeight="472" background="none" math="0" shadow="0">
      <root>
        <mxCell id="0" />
        <mxCell id="1" parent="0" />
        <mxCell id="pzSQEiRu-TKgo18cBddZ-6" style="edgeStyle=orthogonalEdgeStyle;rounded=0;orthogonalLoop=1;jettySize=auto;html=1;exitX=1;exitY=0.5;exitDx=0;exitDy=0;entryX=0;entryY=0.5;entryDx=0;entryDy=0;curved=1;dashed=1;" parent="1" source="pzSQEiRu-TKgo18cBddZ-1" target="pzSQEiRu-TKgo18cBddZ-2" edge="1">
          <mxGeometry relative="1" as="geometry" />
        </mxCell>
        <mxCell id="pzSQEiRu-TKgo18cBddZ-47" value="Reorient sequences" style="edgeLabel;html=1;align=center;verticalAlign=middle;resizable=0;points=[];" parent="pzSQEiRu-TKgo18cBddZ-6" vertex="1" connectable="0">
          <mxGeometry relative="1" as="geometry">
            <mxPoint y="-10" as="offset" />
          </mxGeometry>
        </mxCell>
        <mxCell id="pzSQEiRu-TKgo18cBddZ-10" style="edgeStyle=orthogonalEdgeStyle;rounded=0;orthogonalLoop=1;jettySize=auto;html=1;exitX=0.5;exitY=1;exitDx=0;exitDy=0;entryX=0;entryY=0.5;entryDx=0;entryDy=0;" parent="1" source="pzSQEiRu-TKgo18cBddZ-1" target="pzSQEiRu-TKgo18cBddZ-3" edge="1">
          <mxGeometry relative="1" as="geometry" />
        </mxCell>
        <mxCell id="pzSQEiRu-TKgo18cBddZ-1" value="&lt;font face=&quot;Courier New&quot;&gt;taxonomy&lt;/font&gt;" style="rounded=1;whiteSpace=wrap;html=1;" parent="1" vertex="1">
          <mxGeometry x="174" y="79" width="120" height="60" as="geometry" />
        </mxCell>
        <mxCell id="pzSQEiRu-TKgo18cBddZ-11" style="edgeStyle=orthogonalEdgeStyle;rounded=0;orthogonalLoop=1;jettySize=auto;html=1;exitX=0.5;exitY=1;exitDx=0;exitDy=0;entryX=1;entryY=0.5;entryDx=0;entryDy=0;" parent="1" source="pzSQEiRu-TKgo18cBddZ-2" target="pzSQEiRu-TKgo18cBddZ-3" edge="1">
          <mxGeometry relative="1" as="geometry" />
        </mxCell>
        <mxCell id="pzSQEiRu-TKgo18cBddZ-2" value="&lt;font face=&quot;Courier New&quot;&gt;features&lt;/font&gt;" style="rounded=1;whiteSpace=wrap;html=1;" parent="1" vertex="1">
          <mxGeometry x="534" y="79" width="120" height="60" as="geometry" />
        </mxCell>
        <mxCell id="pzSQEiRu-TKgo18cBddZ-44" style="edgeStyle=orthogonalEdgeStyle;rounded=0;orthogonalLoop=1;jettySize=auto;html=1;exitX=0.5;exitY=1;exitDx=0;exitDy=0;" parent="1" source="pzSQEiRu-TKgo18cBddZ-3" edge="1">
          <mxGeometry relative="1" as="geometry">
            <mxPoint x="414" y="249" as="targetPoint" />
          </mxGeometry>
        </mxCell>
        <mxCell id="pzSQEiRu-TKgo18cBddZ-3" value="&lt;font face=&quot;Courier New&quot;&gt;comments&lt;/font&gt;" style="rounded=1;whiteSpace=wrap;html=1;" parent="1" vertex="1">
          <mxGeometry x="354" y="139" width="120" height="60" as="geometry" />
        </mxCell>
        <mxCell id="pzSQEiRu-TKgo18cBddZ-4" value="&lt;font face=&quot;Courier New&quot;&gt;virus-info&lt;/font&gt;" style="rounded=1;whiteSpace=wrap;html=1;dashed=1;" parent="1" vertex="1">
          <mxGeometry x="2" y="169" width="120" height="60" as="geometry" />
        </mxCell>
        <mxCell id="pzSQEiRu-TKgo18cBddZ-12" style="edgeStyle=orthogonalEdgeStyle;rounded=0;orthogonalLoop=1;jettySize=auto;html=1;" parent="1" edge="1">
          <mxGeometry relative="1" as="geometry">
            <mxPoint x="414" y="319" as="targetPoint" />
            <mxPoint x="414" y="319" as="sourcePoint" />
          </mxGeometry>
        </mxCell>
        <mxCell id="pzSQEiRu-TKgo18cBddZ-13" style="edgeStyle=orthogonalEdgeStyle;rounded=0;orthogonalLoop=1;jettySize=auto;html=1;" parent="1" edge="1">
          <mxGeometry relative="1" as="geometry">
            <mxPoint x="414" y="309" as="targetPoint" />
            <mxPoint x="414" y="309" as="sourcePoint" />
          </mxGeometry>
        </mxCell>
        <mxCell id="pzSQEiRu-TKgo18cBddZ-5" value="&lt;font face=&quot;Courier New&quot;&gt;table2asn&lt;/font&gt;" style="rounded=1;whiteSpace=wrap;html=1;" parent="1" vertex="1">
          <mxGeometry x="354" y="319" width="120" height="60" as="geometry" />
        </mxCell>
        <mxCell id="pzSQEiRu-TKgo18cBddZ-18" style="edgeStyle=orthogonalEdgeStyle;rounded=0;orthogonalLoop=1;jettySize=auto;html=1;exitX=0.5;exitY=1;exitDx=0;exitDy=0;" parent="1" source="pzSQEiRu-TKgo18cBddZ-29" edge="1">
          <mxGeometry relative="1" as="geometry">
            <mxPoint x="414" y="319" as="targetPoint" />
          </mxGeometry>
        </mxCell>
        <mxCell id="pzSQEiRu-TKgo18cBddZ-16" value="&lt;font face=&quot;Courier New&quot;&gt;gbk2tbl&lt;/font&gt;" style="rounded=1;whiteSpace=wrap;html=1;dashed=1;" parent="1" vertex="1">
          <mxGeometry x="704" y="169" width="120" height="60" as="geometry" />
        </mxCell>
        <mxCell id="pzSQEiRu-TKgo18cBddZ-28" style="edgeStyle=orthogonalEdgeStyle;rounded=0;orthogonalLoop=1;jettySize=auto;html=1;exitX=0.5;exitY=1;exitDx=0;exitDy=0;exitPerimeter=0;entryX=0;entryY=0.5;entryDx=0;entryDy=0;" parent="1" source="pzSQEiRu-TKgo18cBddZ-20" target="pzSQEiRu-TKgo18cBddZ-5" edge="1">
          <mxGeometry relative="1" as="geometry" />
        </mxCell>
        <mxCell id="pzSQEiRu-TKgo18cBddZ-20" value="&lt;font style=&quot;font-size: 10px;&quot;&gt;.src&lt;/font&gt;" style="shape=note;whiteSpace=wrap;html=1;backgroundOutline=1;darkOpacity=0.05;size=11;" parent="1" vertex="1">
          <mxGeometry x="134" y="249" width="32" height="40" as="geometry" />
        </mxCell>
        <mxCell id="pzSQEiRu-TKgo18cBddZ-27" style="edgeStyle=orthogonalEdgeStyle;rounded=0;orthogonalLoop=1;jettySize=auto;html=1;exitX=0.5;exitY=1;exitDx=0;exitDy=0;entryX=1;entryY=0.5;entryDx=0;entryDy=0;entryPerimeter=0;" parent="1" source="pzSQEiRu-TKgo18cBddZ-1" target="pzSQEiRu-TKgo18cBddZ-20" edge="1">
          <mxGeometry relative="1" as="geometry" />
        </mxCell>
        <mxCell id="pzSQEiRu-TKgo18cBddZ-29" value="&lt;font style=&quot;font-size: 10px;&quot;&gt;.cmt&lt;/font&gt;" style="shape=note;whiteSpace=wrap;html=1;backgroundOutline=1;darkOpacity=0.05;size=11;" parent="1" vertex="1">
          <mxGeometry x="398" y="249" width="32" height="40" as="geometry" />
        </mxCell>
        <mxCell id="pzSQEiRu-TKgo18cBddZ-35" style="edgeStyle=orthogonalEdgeStyle;rounded=0;orthogonalLoop=1;jettySize=auto;html=1;exitX=0.5;exitY=1;exitDx=0;exitDy=0;exitPerimeter=0;entryX=1;entryY=0.5;entryDx=0;entryDy=0;" parent="1" source="pzSQEiRu-TKgo18cBddZ-31" target="pzSQEiRu-TKgo18cBddZ-5" edge="1">
          <mxGeometry relative="1" as="geometry" />
        </mxCell>
        <mxCell id="pzSQEiRu-TKgo18cBddZ-31" value="&lt;font style=&quot;font-size: 10px;&quot;&gt;.tbl&lt;/font&gt;" style="shape=note;whiteSpace=wrap;html=1;backgroundOutline=1;darkOpacity=0.05;size=11;" parent="1" vertex="1">
          <mxGeometry x="654" y="249" width="32" height="40" as="geometry" />
        </mxCell>
        <mxCell id="pzSQEiRu-TKgo18cBddZ-34" style="edgeStyle=orthogonalEdgeStyle;rounded=0;orthogonalLoop=1;jettySize=auto;html=1;exitX=0.5;exitY=1;exitDx=0;exitDy=0;entryX=0.969;entryY=0.5;entryDx=0;entryDy=0;entryPerimeter=0;dashed=1;" parent="1" source="pzSQEiRu-TKgo18cBddZ-16" target="pzSQEiRu-TKgo18cBddZ-31" edge="1">
          <mxGeometry relative="1" as="geometry" />
        </mxCell>
        <mxCell id="pzSQEiRu-TKgo18cBddZ-36" value="&lt;font style=&quot;font-size: 10px;&quot;&gt;.sqn&lt;/font&gt;" style="shape=note;whiteSpace=wrap;html=1;backgroundOutline=1;darkOpacity=0.05;size=11;" parent="1" vertex="1">
          <mxGeometry x="398" y="419" width="32" height="40" as="geometry" />
        </mxCell>
        <mxCell id="pzSQEiRu-TKgo18cBddZ-37" style="edgeStyle=orthogonalEdgeStyle;rounded=0;orthogonalLoop=1;jettySize=auto;html=1;exitX=0.5;exitY=1;exitDx=0;exitDy=0;entryX=0.5;entryY=0;entryDx=0;entryDy=0;entryPerimeter=0;" parent="1" source="pzSQEiRu-TKgo18cBddZ-5" target="pzSQEiRu-TKgo18cBddZ-36" edge="1">
          <mxGeometry relative="1" as="geometry" />
        </mxCell>
        <mxCell id="pzSQEiRu-TKgo18cBddZ-38" value="&lt;i&gt;Segments&lt;/i&gt;" style="text;html=1;align=center;verticalAlign=middle;whiteSpace=wrap;rounded=0;rotation=0;" parent="1" vertex="1">
          <mxGeometry x="62" y="241" width="70" height="30" as="geometry" />
        </mxCell>
        <mxCell id="9EQvWB8EKbCC_8pniTv0-16" style="edgeStyle=orthogonalEdgeStyle;rounded=0;orthogonalLoop=1;jettySize=auto;html=1;exitX=0;exitY=0.5;exitDx=0;exitDy=0;endArrow=none;startFill=0;dashed=1;dashPattern=1 2;" parent="1" source="pzSQEiRu-TKgo18cBddZ-39" edge="1">
          <mxGeometry relative="1" as="geometry">
            <mxPoint x="152" y="226" as="targetPoint" />
          </mxGeometry>
        </mxCell>
        <mxCell id="9EQvWB8EKbCC_8pniTv0-17" style="edgeStyle=orthogonalEdgeStyle;rounded=0;orthogonalLoop=1;jettySize=auto;html=1;exitX=1;exitY=0.5;exitDx=0;exitDy=0;endArrow=none;startFill=0;dashed=1;dashPattern=1 2;" parent="1" source="pzSQEiRu-TKgo18cBddZ-39" edge="1">
          <mxGeometry relative="1" as="geometry">
            <mxPoint x="232" y="226" as="targetPoint" />
          </mxGeometry>
        </mxCell>
        <mxCell id="pzSQEiRu-TKgo18cBddZ-39" value="&lt;i&gt;Organism&lt;/i&gt;" style="text;html=1;align=center;verticalAlign=middle;whiteSpace=wrap;rounded=0;rotation=0;strokeColor=default;dashed=1;dashPattern=1 2;" parent="1" vertex="1">
          <mxGeometry x="162" y="211" width="60" height="30" as="geometry" />
        </mxCell>
        <mxCell id="pzSQEiRu-TKgo18cBddZ-49" style="edgeStyle=orthogonalEdgeStyle;rounded=0;orthogonalLoop=1;jettySize=auto;html=1;entryX=0.5;entryY=0;entryDx=0;entryDy=0;" parent="1" source="pzSQEiRu-TKgo18cBddZ-48" target="pzSQEiRu-TKgo18cBddZ-1" edge="1">
          <mxGeometry relative="1" as="geometry" />
        </mxCell>
        <mxCell id="pzSQEiRu-TKgo18cBddZ-52" value="" style="edgeStyle=orthogonalEdgeStyle;rounded=0;orthogonalLoop=1;jettySize=auto;html=1;entryX=0.5;entryY=0;entryDx=0;entryDy=0;" parent="1" source="pzSQEiRu-TKgo18cBddZ-48" target="pzSQEiRu-TKgo18cBddZ-2" edge="1">
          <mxGeometry relative="1" as="geometry">
            <mxPoint x="510" y="29" as="targetPoint" />
          </mxGeometry>
        </mxCell>
        <mxCell id="pzSQEiRu-TKgo18cBddZ-60" style="edgeStyle=orthogonalEdgeStyle;rounded=0;orthogonalLoop=1;jettySize=auto;html=1;exitX=0;exitY=0.5;exitDx=0;exitDy=0;exitPerimeter=0;entryX=1;entryY=0.25;entryDx=0;entryDy=0;" parent="1" source="pzSQEiRu-TKgo18cBddZ-59" target="pzSQEiRu-TKgo18cBddZ-5" edge="1">
          <mxGeometry relative="1" as="geometry" />
        </mxCell>
        <mxCell id="pUPda4is4iFvqVS0LF0G-14" style="edgeStyle=orthogonalEdgeStyle;rounded=0;orthogonalLoop=1;jettySize=auto;html=1;entryX=0.5;entryY=0;entryDx=0;entryDy=0;dashed=1;dashPattern=8 8;" parent="1" target="pUPda4is4iFvqVS0LF0G-1" edge="1">
          <mxGeometry relative="1" as="geometry">
            <mxPoint x="594" y="29" as="sourcePoint" />
          </mxGeometry>
        </mxCell>
        <mxCell id="9EQvWB8EKbCC_8pniTv0-10" style="edgeStyle=orthogonalEdgeStyle;rounded=0;orthogonalLoop=1;jettySize=auto;html=1;exitX=0;exitY=0.5;exitDx=0;exitDy=0;exitPerimeter=0;entryX=0.5;entryY=0;entryDx=0;entryDy=0;dashed=1;dashPattern=8 8;" parent="1" source="pzSQEiRu-TKgo18cBddZ-48" target="9EQvWB8EKbCC_8pniTv0-2" edge="1">
          <mxGeometry relative="1" as="geometry" />
        </mxCell>
        <mxCell id="pzSQEiRu-TKgo18cBddZ-48" value="&lt;font style=&quot;font-size: 10px;&quot;&gt;.fna&lt;/font&gt;" style="shape=note;whiteSpace=wrap;html=1;backgroundOutline=1;darkOpacity=0.05;size=11;" parent="1" vertex="1">
          <mxGeometry x="398" y="9" width="32" height="40" as="geometry" />
        </mxCell>
        <mxCell id="pUPda4is4iFvqVS0LF0G-11" value="" style="edgeStyle=orthogonalEdgeStyle;rounded=0;orthogonalLoop=1;jettySize=auto;html=1;startArrow=classic;startFill=1;dashed=1;endArrow=none;" parent="1" source="pzSQEiRu-TKgo18cBddZ-59" edge="1">
          <mxGeometry relative="1" as="geometry">
            <mxPoint x="594" y="269" as="targetPoint" />
            <Array as="points">
              <mxPoint x="594" y="304" />
              <mxPoint x="594" y="269" />
            </Array>
          </mxGeometry>
        </mxCell>
        <mxCell id="pzSQEiRu-TKgo18cBddZ-59" value="&lt;font style=&quot;font-size: 10px;&quot;&gt;.fna&lt;/font&gt;" style="shape=note;whiteSpace=wrap;html=1;backgroundOutline=1;darkOpacity=0.05;size=11;" parent="1" vertex="1">
          <mxGeometry x="524" y="284" width="32" height="40" as="geometry" />
        </mxCell>
        <mxCell id="-LrA51T8bJ5IcRYjtuTH-3" value="Sample metadata" style="text;html=1;align=center;verticalAlign=middle;whiteSpace=wrap;rounded=0;" parent="1" vertex="1">
          <mxGeometry x="174" y="349" width="160" height="30" as="geometry" />
        </mxCell>
        <mxCell id="-LrA51T8bJ5IcRYjtuTH-4" value="MIUVIG&lt;div&gt;Assembly-Data&lt;/div&gt;" style="text;html=1;align=left;verticalAlign=middle;whiteSpace=wrap;rounded=0;" parent="1" vertex="1">
          <mxGeometry x="434" y="259" width="90" height="30" as="geometry" />
        </mxCell>
        <mxCell id="-LrA51T8bJ5IcRYjtuTH-5" value="Sequence information" style="text;html=1;align=center;verticalAlign=middle;whiteSpace=wrap;rounded=0;" parent="1" vertex="1">
          <mxGeometry x="505" y="349" width="160" height="30" as="geometry" />
        </mxCell>
        <mxCell id="8B6IXXiz2PsDgIRqPqF5-3" value="&lt;font face=&quot;Courier New&quot;&gt;co-occurrence&lt;/font&gt;" style="rounded=1;whiteSpace=wrap;html=1;dashed=1;" parent="1" vertex="1">
          <mxGeometry x="2" y="319" width="120" height="60" as="geometry" />
        </mxCell>
        <mxCell id="pUPda4is4iFvqVS0LF0G-2" style="edgeStyle=orthogonalEdgeStyle;rounded=0;orthogonalLoop=1;jettySize=auto;html=1;exitX=0.5;exitY=1;exitDx=0;exitDy=0;entryX=0.5;entryY=0;entryDx=0;entryDy=0;dashed=1;endArrow=none;startFill=0;" parent="1" source="pUPda4is4iFvqVS0LF0G-1" target="pzSQEiRu-TKgo18cBddZ-16" edge="1">
          <mxGeometry relative="1" as="geometry" />
        </mxCell>
        <mxCell id="pUPda4is4iFvqVS0LF0G-1" value="Feature annotation tool (eg. Phold)" style="rounded=1;whiteSpace=wrap;html=1;dashed=1;dashPattern=8 8;" parent="1" vertex="1">
          <mxGeometry x="704" y="79" width="120" height="60" as="geometry" />
        </mxCell>
        <mxCell id="pUPda4is4iFvqVS0LF0G-10" style="edgeStyle=orthogonalEdgeStyle;rounded=0;orthogonalLoop=1;jettySize=auto;html=1;exitX=0.5;exitY=1;exitDx=0;exitDy=0;entryX=0;entryY=0.5;entryDx=0;entryDy=0;entryPerimeter=0;" parent="1" source="pzSQEiRu-TKgo18cBddZ-2" target="pzSQEiRu-TKgo18cBddZ-31" edge="1">
          <mxGeometry relative="1" as="geometry" />
        </mxCell>
        <mxCell id="pUPda4is4iFvqVS0LF0G-15" value="" style="shape=actor;whiteSpace=wrap;html=1;" parent="1" vertex="1">
          <mxGeometry x="169" y="286" width="15" height="20" as="geometry" />
        </mxCell>
        <mxCell id="pUPda4is4iFvqVS0LF0G-22" value="" style="group" parent="1" vertex="1" connectable="0">
          <mxGeometry x="661.00025" y="392" width="162.4595" height="70" as="geometry" />
        </mxCell>
        <mxCell id="pUPda4is4iFvqVS0LF0G-16" value="" style="shape=actor;whiteSpace=wrap;html=1;" parent="pUPda4is4iFvqVS0LF0G-22" vertex="1">
          <mxGeometry x="12.459749999999985" y="45" width="15" height="20" as="geometry" />
        </mxCell>
        <mxCell id="pUPda4is4iFvqVS0LF0G-3" value="" style="endArrow=none;html=1;rounded=0;dashed=1;strokeWidth=1.1811;" parent="pUPda4is4iFvqVS0LF0G-22" target="pUPda4is4iFvqVS0LF0G-6" edge="1">
          <mxGeometry width="50" height="50" relative="1" as="geometry">
            <mxPoint y="15" as="sourcePoint" />
            <mxPoint x="40" y="15" as="targetPoint" />
          </mxGeometry>
        </mxCell>
        <mxCell id="pUPda4is4iFvqVS0LF0G-4" value="" style="endArrow=none;html=1;rounded=0;dashed=1;dashPattern=8 8;" parent="pUPda4is4iFvqVS0LF0G-22" target="pUPda4is4iFvqVS0LF0G-7" edge="1">
          <mxGeometry width="50" height="50" relative="1" as="geometry">
            <mxPoint y="35" as="sourcePoint" />
            <mxPoint x="39.91949999999997" y="35" as="targetPoint" />
          </mxGeometry>
        </mxCell>
        <mxCell id="pUPda4is4iFvqVS0LF0G-6" value="Optional" style="text;html=1;align=left;verticalAlign=middle;whiteSpace=wrap;rounded=0;flipV=0;" parent="pUPda4is4iFvqVS0LF0G-22" vertex="1">
          <mxGeometry x="40.99949999999997" width="60" height="30" as="geometry" />
        </mxCell>
        <mxCell id="pUPda4is4iFvqVS0LF0G-7" value="External (optional)" style="text;html=1;align=left;verticalAlign=middle;whiteSpace=wrap;rounded=0;flipV=0;" parent="pUPda4is4iFvqVS0LF0G-22" vertex="1">
          <mxGeometry x="40.99949999999997" y="20" width="110.08" height="30" as="geometry" />
        </mxCell>
        <mxCell id="pUPda4is4iFvqVS0LF0G-20" value="Manual intervention" style="text;html=1;align=left;verticalAlign=middle;whiteSpace=wrap;rounded=0;flipV=0;" parent="pUPda4is4iFvqVS0LF0G-22" vertex="1">
          <mxGeometry x="40.99949999999997" y="40" width="122.54" height="30" as="geometry" />
        </mxCell>
        <mxCell id="9EQvWB8EKbCC_8pniTv0-1" style="edgeStyle=orthogonalEdgeStyle;rounded=0;orthogonalLoop=1;jettySize=auto;html=1;exitX=0.5;exitY=0;exitDx=0;exitDy=0;entryX=0;entryY=0.5;entryDx=0;entryDy=0;entryPerimeter=0;dashed=1;" parent="1" source="8B6IXXiz2PsDgIRqPqF5-3" target="pzSQEiRu-TKgo18cBddZ-20" edge="1">
          <mxGeometry relative="1" as="geometry" />
        </mxCell>
        <mxCell id="9EQvWB8EKbCC_8pniTv0-7" style="edgeStyle=orthogonalEdgeStyle;rounded=0;orthogonalLoop=1;jettySize=auto;html=1;exitX=0.5;exitY=1;exitDx=0;exitDy=0;entryX=0.5;entryY=0;entryDx=0;entryDy=0;dashed=1;endArrow=none;startFill=0;" parent="1" source="9EQvWB8EKbCC_8pniTv0-2" target="pzSQEiRu-TKgo18cBddZ-4" edge="1">
          <mxGeometry relative="1" as="geometry" />
        </mxCell>
        <mxCell id="9EQvWB8EKbCC_8pniTv0-2" value="Taxonomic classification tool&amp;nbsp;&lt;div&gt;(eg. vConTACT3)&lt;/div&gt;" style="rounded=1;whiteSpace=wrap;html=1;dashed=1;dashPattern=8 8;" parent="1" vertex="1">
          <mxGeometry x="2" y="79" width="120" height="60" as="geometry" />
        </mxCell>
        <mxCell id="9EQvWB8EKbCC_8pniTv0-5" style="edgeStyle=orthogonalEdgeStyle;rounded=0;orthogonalLoop=1;jettySize=auto;html=1;exitX=1;exitY=0.5;exitDx=0;exitDy=0;entryX=0.5;entryY=0;entryDx=0;entryDy=0;entryPerimeter=0;dashed=1;dashPattern=8 8;" parent="1" source="9EQvWB8EKbCC_8pniTv0-2" target="pzSQEiRu-TKgo18cBddZ-20" edge="1">
          <mxGeometry relative="1" as="geometry" />
        </mxCell>
        <mxCell id="9EQvWB8EKbCC_8pniTv0-11" style="edgeStyle=elbowEdgeStyle;rounded=0;orthogonalLoop=1;jettySize=auto;html=1;exitX=1;exitY=0.5;exitDx=0;exitDy=0;entryX=0;entryY=0.5;entryDx=0;entryDy=0;entryPerimeter=0;dashed=1;" parent="1" source="pzSQEiRu-TKgo18cBddZ-4" target="pzSQEiRu-TKgo18cBddZ-29" edge="1">
          <mxGeometry relative="1" as="geometry" />
        </mxCell>
        <mxCell id="-zKaNX_ZRaG0LUzS7A1v-3" style="edgeStyle=orthogonalEdgeStyle;rounded=0;orthogonalLoop=1;jettySize=auto;html=1;exitX=0;exitY=0;exitDx=32;exitDy=25.5;exitPerimeter=0;entryX=0;entryY=0.25;entryDx=0;entryDy=0;" edge="1" parent="1" source="-zKaNX_ZRaG0LUzS7A1v-1" target="pzSQEiRu-TKgo18cBddZ-5">
          <mxGeometry relative="1" as="geometry" />
        </mxCell>
        <mxCell id="-zKaNX_ZRaG0LUzS7A1v-1" value="&lt;font style=&quot;font-size: 10px;&quot;&gt;.sbt&lt;/font&gt;" style="shape=note;whiteSpace=wrap;html=1;backgroundOutline=1;darkOpacity=0.05;size=11;" vertex="1" parent="1">
          <mxGeometry x="272" y="284" width="32" height="40" as="geometry" />
        </mxCell>
      </root>
    </mxGraphModel>
  </diagram>
</mxfile>
